<svg width="32" height="22" viewBox="0 0 32 22" fill="none" xmlns="http://www.w3.org/2000/svg">
<path d="M6.26866 3.02198C9.16418 0.997253 12.4179 0 16 0C19.5821 0 22.8358 0.997253 25.7313 3.02198C28.6269 5.0467 30.7164 7.70604 32 11C30.7463 14.294 28.6567 16.9835 25.7313 18.978C22.8358 21.0027 19.5821 22 16 22C12.4179 22 9.16418 21.0027 6.26866 18.978C3.37313 16.9533 1.28358 14.294 0 11C1.28358 7.70604 3.37313 5.01648 6.26866 3.02198ZM10.8657 16.1978C12.2985 17.6484 14 18.3736 16 18.3736C18 18.3736 19.7015 17.6484 21.1343 16.1978C22.5672 14.7473 23.2836 13.0247 23.2836 11C23.2836 8.97527 22.5672 7.25275 21.1343 5.8022C19.7015 4.35165 18 3.62637 16 3.62637C14 3.62637 12.2985 4.35165 10.8657 5.8022C9.43284 7.25275 8.71642 8.97527 8.71642 11C8.71642 13.0247 9.43284 14.7473 10.8657 16.1978ZM12.9254 7.88736C13.791 7.04121 14.806 6.58791 16 6.58791C17.1642 6.58791 18.209 7.01099 19.0746 7.88736C19.9104 8.76374 20.3582 9.79121 20.3582 11C20.3582 12.2088 19.9403 13.2363 19.0746 14.1126C18.209 14.9588 17.1642 15.4121 16 15.4121C14.806 15.4121 13.791 14.989 12.9254 14.1126C12.0896 13.2363 11.6418 12.2088 11.6418 11C11.6418 9.79121 12.0896 8.76374 12.9254 7.88736Z" fill="white"/>
</svg>
