<svg width="239" height="239" viewBox="0 0 239 239" fill="none" xmlns="http://www.w3.org/2000/svg">
<path d="M158.256 225.065C176.094 225.065 190.554 210.605 190.554 192.768C190.554 174.931 176.094 160.471 158.256 160.471C140.419 160.471 125.959 174.931 125.959 192.768C125.959 210.605 140.419 225.065 158.256 225.065Z" fill="white"/>
<path d="M51.6762 118.485C69.5135 118.485 83.9735 104.025 83.9735 86.1879C83.9735 68.3506 69.5135 53.8906 51.6762 53.8906C33.8389 53.8906 19.3789 68.3506 19.3789 86.1879C19.3789 104.025 33.8389 118.485 51.6762 118.485Z" fill="white"/>
<path d="M76.5866 90.2246L56.5195 110.123L138.387 192.685L158.455 172.786L76.5866 90.2246Z" fill="white"/>
<path d="M117.891 17.3942L89.3597 45.5833C84.6015 50.2846 84.5553 57.953 89.2565 62.7113L100.039 73.6243C104.74 78.3825 112.409 78.4287 117.167 73.7275L145.698 45.5384C150.456 40.8371 150.502 33.1687 145.801 28.4104L135.018 17.4974C130.317 12.7392 122.649 12.693 117.891 17.3942Z" fill="white"/>
<path d="M142.915 45.8161L119.229 69.2188L125.506 75.572L149.192 52.1693L142.915 45.8161Z" fill="white"/>
<path d="M154.178 56.749L129.731 80.9037C124.973 85.6049 124.926 93.2733 129.628 98.0316L154.09 122.79C158.791 127.549 166.46 127.595 171.218 122.894L195.665 98.739C200.423 94.0377 200.47 86.3693 195.768 81.611L171.306 56.8522C166.605 52.094 158.936 52.0478 154.178 56.749Z" fill="white"/>
<path d="M110.617 117.678L133.226 99.1074L153.814 119.698L134.84 142.303L110.617 117.678Z" fill="white"/>
<path d="M38.1322 211.161C29.4614 201.694 30.4898 186.896 40.3865 178.72L67.8045 156.069C75.6498 149.588 87.1297 150.104 94.3611 157.264C101.879 164.708 102.222 176.745 95.1402 184.604L71.3342 211.025C62.4747 220.858 47.0718 220.921 38.1322 211.161Z" fill="white"/>
<path d="M51.6719 169.358L81.7608 144.521L107.789 170.57L79.1274 202.459L51.6719 169.358Z" fill="white"/>
<path d="M200.131 102.241C202.289 100.068 205.988 100.996 206.864 103.932L217.251 138.748C218.146 141.747 215.435 144.58 212.399 143.818L176.41 134.782C173.374 134.019 172.323 130.242 174.529 128.021L200.131 102.241Z" fill="white"/>
<path d="M161.2 177.105C162.599 176.755 164.078 177.178 165.081 178.215L173.894 187.324C174.896 188.36 175.269 189.853 174.873 191.24L171.391 203.426C170.994 204.813 169.888 205.883 168.489 206.233L156.195 209.31C154.795 209.66 153.315 209.237 152.312 208.2L143.501 199.091C142.498 198.055 142.124 196.562 142.521 195.175L146.003 182.989C146.4 181.602 147.506 180.532 148.905 180.182L161.2 177.105Z" fill="#1F3134"/>
<path d="M36.5552 53.8906L19.3789 70.9707L47.9273 99.6799L65.1036 82.5998L36.5552 53.8906Z" fill="#1F2F34"/>
</svg>
