<svg width="30" height="26" viewBox="0 0 30 26" fill="none" xmlns="http://www.w3.org/2000/svg">
<path d="M28.8491 13.7243C26.9759 17.2894 18.94 23.479 16.046 25.6425C15.7434 25.8713 15.3757 25.9966 14.997 26C14.6178 25.9993 14.2493 25.8738 13.948 25.6425C11.054 23.479 3.03678 17.2894 1.13551 13.7243C0.012844 11.6269 -0.290625 9.1844 0.284414 6.87423C0.859454 4.56405 2.27167 2.55232 4.24499 1.23229C5.49942 0.43119 6.95436 0.00389047 8.44089 1.31548e-05C9.72296 0.0171005 10.9833 0.334718 12.1216 0.927545C13.2598 1.52037 14.2444 2.37202 14.997 3.41463C15.748 2.37041 16.7323 1.51756 17.8709 0.924552C19.0095 0.331545 20.2706 0.014891 21.5531 1.31548e-05C23.0523 -0.00273388 24.5211 0.424809 25.7865 1.23229C27.7536 2.55802 29.1576 4.57301 29.724 6.88324C30.2904 9.19348 29.9784 11.6328 28.8491 13.7243Z" fill="white"/>
</svg>
