<svg width="27" height="27" viewBox="0 0 27 27" fill="none" xmlns="http://www.w3.org/2000/svg">
<path fill-rule="evenodd" clip-rule="evenodd" d="M23.8259 22.1968C25.8065 19.8477 27 16.8132 27 13.5C27 6.04416 20.9558 0 13.5 0C6.04416 0 0 6.04416 0 13.5C0 16.8132 1.19355 19.8477 3.17414 22.1968C3.16251 22.2106 3.15091 22.2244 3.13934 22.2383C3.46317 22.6255 3.80829 22.9942 4.17292 23.3428C4.18556 23.3272 4.19823 23.3117 4.21094 23.2961C6.63103 25.5917 9.90105 27 13.5 27C17.0989 27 20.369 25.5917 22.7891 23.2961C22.8018 23.3117 22.8144 23.3272 22.8271 23.3428C23.1917 22.9942 23.5368 22.6255 23.8607 22.2383C23.8491 22.2244 23.8375 22.2106 23.8259 22.1968ZM12.75 18.9167V25.3675C11.826 25.0469 10.7982 24.1227 9.88188 22.3555C9.49602 21.6113 9.15504 20.7586 8.873 19.8182C10.0782 19.3141 11.3831 19.001 12.75 18.9167ZM14.25 18.9167V25.3675C15.174 25.0469 16.2018 24.1227 17.1181 22.3555C17.504 21.6113 17.845 20.7586 18.127 19.8182C16.9218 19.3141 15.6169 19.001 14.25 18.9167ZM18.5027 18.3509C17.1759 17.8212 15.7453 17.496 14.25 17.4141V14.25H18.9888C18.9449 15.7087 18.774 17.0887 18.5027 18.3509ZM19.489 20.4926C18.9284 22.2745 18.1601 23.7862 17.2489 24.9028C18.9567 24.3417 20.4953 23.4075 21.7684 22.1968C21.0809 21.543 20.3161 20.9699 19.489 20.4926ZM22.7891 21.0975C21.9247 20.2776 20.9519 19.5709 19.8944 19.0011C20.2336 17.5367 20.4416 15.9345 20.4894 14.25H25.4769C25.3172 16.8408 24.3353 19.2092 22.7891 21.0975ZM4.21094 21.0975C5.07532 20.2776 6.04813 19.5709 7.10562 19.0011C6.7664 17.5367 6.55845 15.9345 6.51062 14.25H1.52306C1.68282 16.8408 2.66466 19.2092 4.21094 21.0975ZM8.49734 18.3509C8.226 17.0887 8.05515 15.7087 8.01125 14.25H12.75V17.4141C11.2547 17.496 9.82413 17.8212 8.49734 18.3509ZM7.51103 20.4926C6.68391 20.9699 5.91906 21.5431 5.23163 22.1968C6.5047 23.4076 8.04332 24.3417 9.75113 24.9028C8.83988 23.7862 8.07157 22.2745 7.51103 20.4926ZM12.75 12.75H8.01125C8.05742 11.2156 8.24408 9.76819 8.54041 8.45348C9.85507 8.97304 11.2708 9.29215 12.75 9.37315V12.75ZM12.75 7.87057C11.405 7.78763 10.1199 7.48311 8.93077 6.99307C9.20116 6.12707 9.522 5.33859 9.88188 4.64453C10.7982 2.8773 11.826 1.95306 12.75 1.63252V7.87057ZM14.25 9.37315V12.75H18.9888C18.9426 11.2156 18.7559 9.7682 18.4596 8.45348C17.1449 8.97304 15.7292 9.29215 14.25 9.37315ZM18.0692 6.99308C16.8801 7.48311 15.595 7.78763 14.25 7.87057V1.63252C15.174 1.95306 16.2018 2.8773 17.1181 4.64453C17.478 5.33859 17.7988 6.12707 18.0692 6.99308ZM19.8497 7.81012C20.2154 9.32515 20.4395 10.9928 20.4894 12.75H25.4769C25.3138 10.1042 24.2933 7.69038 22.6899 5.78293C21.8382 6.57469 20.8841 7.25778 19.8497 7.81012ZM21.6551 4.69681C20.9811 5.32145 20.2353 5.86964 19.4314 6.32761C18.8763 4.6238 18.1293 3.17608 17.2489 2.0972C18.9063 2.64179 20.4044 3.53769 21.6551 4.69681ZM7.56857 6.32761C8.12367 4.6238 8.87067 3.17608 9.75113 2.0972C8.09367 2.64179 6.59558 3.53769 5.34493 4.69681C6.01888 5.32144 6.76469 5.86964 7.56857 6.32761ZM4.31015 5.78292C2.70671 7.69038 1.68621 10.1042 1.52306 12.75H6.51062C6.56051 10.9928 6.78464 9.32514 7.15026 7.81012C6.11585 7.25778 5.16179 6.57469 4.31015 5.78292Z" fill="#24292F"/>
</svg>
