<svg width="55" height="58" viewBox="0 0 55 58" fill="none" xmlns="http://www.w3.org/2000/svg">
<ellipse cx="27.5" cy="28.8836" rx="27.5" ry="28.8836" fill="white"/>
<path d="M25.8581 12.9023H18.0472C17.5781 12.9023 17.1721 13.2284 17.0708 13.6865L11.2688 39.9303C11.1308 40.5545 11.6059 41.1461 12.2452 41.1461H20.0561C20.5252 41.1461 20.9313 40.8201 21.0325 40.362L26.8345 14.1182C26.9725 13.494 26.4974 12.9023 25.8581 12.9023Z" fill="black"/>
<path d="M32.8722 16.1504L24.3808 25.1995L23.5332 29.0741L24.5939 30.6761L34.6579 18.8382L32.8722 16.1504Z" fill="black"/>
<path d="M34.4259 14.4199L33.2381 15.794L35.0748 18.5566L39.2232 14.1252C37.829 12.8577 35.6612 12.9909 34.4259 14.4199Z" fill="black"/>
<path d="M30.1918 25.0899L24.9336 31.1195L31.5064 40.6399C32.4923 41.9093 36.4154 42.8613 39.0651 40.6399C40.4982 39.4384 41.2059 38.6609 42.3515 37.1491C42.3515 37.1491 44.652 33.3409 45.3092 31.7542C45.9665 30.1675 46.4579 28.2651 45.3092 26.3593L39.5163 14.6387L35.4501 19.0604L43.0088 30.1675C43.1635 30.501 43.2578 31.2026 42.8484 31.8196C42.8484 31.8196 40.3796 35.8797 39.3937 36.1971C38.4078 36.5144 37.814 36.4887 37.0932 35.5624L30.1918 25.0899Z" fill="black"/>
</svg>
