<svg width="203" height="203" viewBox="0 0 203 203" fill="none" xmlns="http://www.w3.org/2000/svg">
<path d="M98.7922 48.7344H64.4512C63.9821 48.7344 63.576 49.0605 63.4748 49.5185L40.8704 151.764C40.7324 152.388 41.2075 152.98 41.8468 152.98H76.1878C76.6569 152.98 77.063 152.654 77.1643 152.196L99.7687 49.9502C99.9067 49.326 99.4316 48.7344 98.7922 48.7344Z" fill="#4FE570"/>
<path d="M121.321 60.7266L89.9799 94.1258L86.8516 108.427L90.7664 114.34L127.912 70.6471L121.321 60.7266Z" fill="#4FE570"/>
<path d="M130.745 50.0887L122.688 59.4096L129.467 69.6062L144.778 53.2503L140.632 49.4812C137.759 46.8691 133.291 47.1436 130.745 50.0887Z" fill="#4FE570"/>
<path d="M111.435 93.7231L92.0273 115.978L116.287 151.117C119.926 155.802 134.406 159.316 144.185 151.117C149.475 146.682 152.087 143.812 156.315 138.232C156.315 138.232 164.806 124.177 167.232 118.32C169.658 112.464 171.472 105.442 167.232 98.4083L145.851 55.1484L130.843 71.4685L158.741 112.464C159.312 113.695 159.66 116.284 158.149 118.562C158.149 118.562 149.037 133.547 145.398 134.718C141.759 135.89 139.568 135.795 136.908 132.376L111.435 93.7231Z" fill="#4FE570"/>
<circle cx="101.5" cy="101.5" r="100" stroke="#868686" stroke-width="3"/>
</svg>
